<svg width="900" height="60" viewBox="0 0 900 60" fill="none" xmlns="http://www.w3.org/2000/svg">
<g filter="url(#filter0_b_282_3640)">
<mask id="path-1-inside-1_282_3640" fill="white">
<path fill-rule="evenodd" clip-rule="evenodd" d="M0 30C0 6 5.99976 0 30 0L30 0.00295639L870 0.00291967C894 0.00292995 900 6.00293 900 30.0029C900 54.0032 894 60.0029 870 60.0029L30 60.0029L30 60C5.99976 60 0 54.0002 0 30Z"/>
</mask>
<path fill-rule="evenodd" clip-rule="evenodd" d="M0 30C0 6 5.99976 0 30 0L30 0.00295639L870 0.00291967C894 0.00292995 900 6.00293 900 30.0029C900 54.0032 894 60.0029 870 60.0029L30 60.0029L30 60C5.99976 60 0 54.0002 0 30Z" fill="white"/>
<path d="M30 0L33 0.00387096L33.0039 -3H30V0ZM30 0.00295639L27 -0.000914574L26.9961 3.00296L30 3.00296V0.00295639ZM870 0.00291967V-2.99708V0.00291967ZM870 60.0029V57.0029V60.0029ZM30 60.0029L27 60.0049L27.002 63.0029H30V60.0029ZM30 60L33 59.998L32.998 57H30V60ZM30 -3C18.0213 -3 9.33258 -1.57535 3.87859 3.87868C-1.57541 9.33271 -3 18.0215 -3 30H3C3 17.9785 4.57529 11.6673 8.12124 8.12131C11.6672 4.57535 17.9784 3 30 3V-3ZM33 0.00682735L33 0.00387096L27 -0.00387096L27 -0.000914574L33 0.00682735ZM870 -2.99708L30 -2.99704V3.00296L870 3.00292V-2.99708ZM903 30.0029C903 18.0244 901.575 9.33564 896.121 3.88161C890.667 -1.57242 881.979 -2.99708 870 -2.99708V3.00292C882.022 3.00292 888.333 4.57827 891.879 8.12424C895.425 11.6702 897 17.9815 897 30.0029H903ZM870 63.0029C881.979 63.0029 890.667 61.5783 896.121 56.1243C901.575 50.6703 903 41.9816 903 30.0029H897C897 42.0245 895.425 48.3358 891.879 51.8817C888.333 55.4276 882.022 57.0029 870 57.0029V63.0029ZM30 63.0029L870 63.0029V57.0029L30 57.0029V63.0029ZM27 60.002L27 60.0049L33 60.001L33 59.998L27 60.002ZM-3 30C-3 41.9786 -1.57541 50.6674 3.87859 56.1214C9.33259 61.5754 18.0214 63 30 63V57C17.9784 57 11.6672 55.4247 8.12123 51.8788C4.57529 48.3328 3 42.0216 3 30H-3Z" fill="url(#paint0_linear_282_3640)" mask="url(#path-1-inside-1_282_3640)"/>
</g>
<defs>
<filter id="filter0_b_282_3640" x="-28" y="-28" width="956" height="116.003" filterUnits="userSpaceOnUse" color-interpolation-filters="sRGB">
<feFlood flood-opacity="0" result="BackgroundImageFix"/>
<feGaussianBlur in="BackgroundImageFix" stdDeviation="14"/>
<feComposite in2="SourceAlpha" operator="in" result="effect1_backgroundBlur_282_3640"/>
<feBlend mode="normal" in="SourceGraphic" in2="effect1_backgroundBlur_282_3640" result="shape"/>
</filter>
<linearGradient id="paint0_linear_282_3640" x1="655.435" y1="1.29784e-06" x2="692.627" y2="122.807" gradientUnits="userSpaceOnUse">
<stop stop-color="#DA15B8"/>
<stop offset="1" stop-color="#8D06CC"/>
</linearGradient>
</defs>
</svg>
